<svg width="512" height="512" viewBox="0 0 512 512" fill="none" xmlns="http://www.w3.org/2000/svg">
<circle cx="256" cy="256" r="246" fill="black" stroke="white" stroke-width="20"/>
<path d="M184.786 116.824C185.326 116.275 220.258 116 289.584 116H393.168L394.786 117.235C395.595 118.333 396 119.431 396 120.529L382.647 216.471C381.838 217.294 381.299 217.843 381.029 218.118C380.489 218.667 377.522 218.941 372.127 218.941C366.462 218.941 363.225 218.667 362.416 218.118C361.067 217.294 360.663 213.588 361.202 207C362.821 195.745 363.63 186.137 363.63 178.176C363.63 166.373 362.146 158.275 359.179 153.882C356.212 148.941 350.817 145.235 342.994 142.765C334.093 140.294 316.289 139.059 289.584 139.059C270.162 139.333 260.046 140.02 259.237 141.118C258.967 141.392 254.651 157.725 246.289 190.118L234.555 238.706C234.555 238.98 240.489 239.118 252.358 239.118C267.195 238.843 276.771 237.882 281.087 236.235C289.179 233.49 295.114 227.863 298.89 219.353C300.778 215.235 302.802 209.059 304.96 200.824C306.308 195.608 307.387 192.725 308.197 192.176L309.41 190.941H317.503C323.977 190.941 327.753 191.902 328.832 193.824C329.102 194.922 324.786 214 315.884 251.059C306.443 288.667 301.588 307.608 301.318 307.882C300.778 309.529 297.137 310.353 290.393 310.353H282.301L280.682 309.118C279.603 307.745 279.738 303.902 281.087 297.588C282.975 288.804 283.919 281.941 283.919 277L283.11 271.647C281.761 267.804 278.389 265.196 272.994 263.824C268.408 262.725 258.832 262.176 244.266 262.176H228.89L215.538 316.118C206.636 352.627 202.185 371.02 202.185 371.294C202.185 372.118 202.994 372.529 204.613 372.529H264.902C286.751 370.882 303.611 364.98 315.48 354.824C327.079 344.667 339.083 322.706 351.491 288.941C353.11 284.549 354.459 281.804 355.538 280.706L356.751 279.471H365.249H373.746L374.96 280.706C376.039 281.804 376.039 284 374.96 287.294C373.611 291.686 367.137 308.98 355.538 339.176C341.511 375.961 334.497 394.216 334.497 393.941C333.958 395.039 329.777 395.588 321.954 395.588C313.322 395.863 281.087 396 225.249 396H118.832L117.214 394.765C116.405 393.392 116 392.294 116 391.471C116 387.078 117.349 381.725 120.046 375.412C123.283 373.765 128.408 372.941 135.422 372.941C147.561 372.667 154.439 372.118 156.058 371.294C157.407 370.471 158.486 368.824 159.295 366.353C161.183 361.137 170.489 323.941 187.214 254.765C205.827 179 214.998 141.118 214.728 141.118C213.38 139.745 205.152 139.059 190.046 139.059H181.954L180.335 137.824C178.987 136.176 179.121 132.333 180.74 126.294C182.358 120.529 183.707 117.373 184.786 116.824Z" fill="white"/>
</svg>
